<svg width="44" height="44" viewBox="0 0 44 44" fill="none" xmlns="http://www.w3.org/2000/svg">
<path d="M12.7604 20.1768C15.3215 25.2101 19.4478 29.3364 24.4811 31.8975L28.3939 27.9847C28.8919 27.4867 29.5855 27.3444 30.208 27.54C32.2 28.1981 34.3343 28.5538 36.5575 28.5538C37.0292 28.5538 37.4816 28.7412 37.8151 29.0747C38.1486 29.4083 38.336 29.8607 38.336 30.3324V36.5573C38.336 37.029 38.1486 37.4814 37.8151 37.8149C37.4816 38.1485 37.0292 38.3359 36.5575 38.3359C28.5385 38.3359 20.848 35.1504 15.1778 29.4801C9.50753 23.8099 6.32202 16.1194 6.32202 8.10043C6.32202 7.62873 6.5094 7.17635 6.84295 6.8428C7.17649 6.50926 7.62887 6.32188 8.10058 6.32188H14.3255C14.7972 6.32188 15.2496 6.50926 15.5831 6.8428C15.9167 7.17635 16.1041 7.62873 16.1041 8.10043C16.1041 10.3236 16.4598 12.4579 17.1179 14.4499C17.3135 15.0724 17.1712 15.766 16.6732 16.264L12.7604 20.1768Z" fill="#F68000"/>
</svg>
