<svg width="22" height="22" viewBox="0 0 22 22" fill="none" xmlns="http://www.w3.org/2000/svg">
<path d="M6.48138 0.174805H15.6152C19.0947 0.174805 21.9218 3.00193 21.9218 6.48147V15.6153C21.9218 17.2879 21.2574 18.892 20.0747 20.0748C18.8919 21.2575 17.2878 21.9219 15.6152 21.9219H6.48138C3.00184 21.9219 0.174713 19.0948 0.174713 15.6153V6.48147C0.174713 4.80884 0.839164 3.20471 2.02189 2.02198C3.20462 0.839255 4.80875 0.174805 6.48138 0.174805ZM6.26391 2.34952C5.22572 2.34952 4.23006 2.76193 3.49595 3.49604C2.76184 4.23015 2.34943 5.22581 2.34943 6.264V15.8327C2.34943 17.9966 4.10007 19.7472 6.26391 19.7472H15.8326C16.8708 19.7472 17.8665 19.3348 18.6006 18.6007C19.3347 17.8666 19.7471 16.8709 19.7471 15.8327V6.264C19.7471 4.10016 17.9965 2.34952 15.8326 2.34952H6.26391ZM16.7569 3.98055C17.1174 3.98055 17.4631 4.12375 17.718 4.37865C17.9729 4.63355 18.1161 4.97927 18.1161 5.33975C18.1161 5.70023 17.9729 6.04595 17.718 6.30084C17.4631 6.55574 17.1174 6.69894 16.7569 6.69894C16.3964 6.69894 16.0507 6.55574 15.7958 6.30084C15.5409 6.04595 15.3977 5.70023 15.3977 5.33975C15.3977 4.97927 15.5409 4.63355 15.7958 4.37865C16.0507 4.12375 16.3964 3.98055 16.7569 3.98055ZM11.0483 5.61159C12.4902 5.61159 13.8731 6.18439 14.8927 7.20398C15.9123 8.22358 16.4851 9.60644 16.4851 11.0484C16.4851 12.4903 15.9123 13.8732 14.8927 14.8928C13.8731 15.9123 12.4902 16.4851 11.0483 16.4851C9.60635 16.4851 8.22349 15.9123 7.20389 14.8928C6.1843 13.8732 5.6115 12.4903 5.6115 11.0484C5.6115 9.60644 6.1843 8.22358 7.20389 7.20398C8.22349 6.18439 9.60635 5.61159 11.0483 5.61159ZM11.0483 7.7863C10.1831 7.7863 9.3534 8.12998 8.74164 8.74174C8.12989 9.35349 7.78621 10.1832 7.78621 11.0484C7.78621 11.9135 8.12989 12.7432 8.74164 13.355C9.3534 13.9668 10.1831 14.3104 11.0483 14.3104C11.9134 14.3104 12.7432 13.9668 13.3549 13.355C13.9667 12.7432 14.3103 11.9135 14.3103 11.0484C14.3103 10.1832 13.9667 9.35349 13.3549 8.74174C12.7432 8.12998 11.9134 7.7863 11.0483 7.7863Z" fill="black"/>
</svg>
