<svg width="18" height="15" viewBox="0 0 18 15" fill="none" xmlns="http://www.w3.org/2000/svg">
<path d="M1.93104 14.4415C1.44173 14.4415 1.02299 14.2674 0.674843 13.9193C0.326691 13.5711 0.152319 13.1521 0.151726 12.6622V1.98634C0.151726 1.49703 0.326098 1.0783 0.674843 0.730148C1.02359 0.381997 1.44232 0.207624 1.93104 0.207031H16.1655C16.6548 0.207031 17.0739 0.381404 17.4226 0.730148C17.7713 1.07889 17.9454 1.49762 17.9448 1.98634V12.6622C17.9448 13.1515 17.7708 13.5705 17.4226 13.9193C17.0745 14.268 16.6554 14.4421 16.1655 14.4415H1.93104ZM9.04828 8.21393L16.1655 3.76565V1.98634L9.04828 6.43462L1.93104 1.98634V3.76565L9.04828 8.21393Z" fill="black"/>
</svg>
