<svg width="17" height="17" viewBox="0 0 17 17" fill="none" xmlns="http://www.w3.org/2000/svg">
<path d="M3.26193 7.59252C4.54304 10.1102 6.60704 12.1742 9.12476 13.4554L11.082 11.4981C11.3311 11.249 11.6781 11.1778 11.9895 11.2757C12.9859 11.6049 14.0535 11.7828 15.1655 11.7828C15.4015 11.7828 15.6278 11.8765 15.7946 12.0434C15.9614 12.2102 16.0552 12.4365 16.0552 12.6725V15.7862C16.0552 16.0222 15.9614 16.2485 15.7946 16.4153C15.6278 16.5822 15.4015 16.6759 15.1655 16.6759C11.1543 16.6759 7.30747 15.0825 4.47114 12.2461C1.63481 9.40982 0.0413818 5.56294 0.0413818 1.55176C0.0413818 1.31581 0.135113 1.08953 0.301956 0.922683C0.468798 0.755841 0.695086 0.662109 0.931037 0.662109H4.04483C4.28078 0.662109 4.50707 0.755841 4.67391 0.922683C4.84075 1.08953 4.93449 1.31581 4.93449 1.55176C4.93449 2.66383 5.11242 3.73142 5.44159 4.72783C5.53945 5.03921 5.46828 5.38618 5.21917 5.63528L3.26193 7.59252Z" fill="black"/>
</svg>
